<?xml version="1.0" encoding="UTF-8" standalone="no"?>
<svg
   viewBox="0 0 225 150"
   width="1350"
   height="900"
   version="1.1"
   id="svg25459"
   sodipodi:docname="BJP Flag.svg"
   inkscape:version="1.1 (c68e22c387, 2021-05-23)"
   xmlns:inkscape="http://www.inkscape.org/namespaces/inkscape"
   xmlns:sodipodi="http://sodipodi.sourceforge.net/DTD/sodipodi-0.dtd"
   xmlns="http://www.w3.org/2000/svg"
   xmlns:svg="http://www.w3.org/2000/svg">
  <defs
     id="defs25463" />
  <sodipodi:namedview
     id="namedview25461"
     pagecolor="#ffffff"
     bordercolor="#666666"
     borderopacity="1.0"
     inkscape:pageshadow="2"
     inkscape:pageopacity="0.0"
     inkscape:pagecheckerboard="0"
     showgrid="false"
     inkscape:zoom="0.64"
     inkscape:cx="536.71875"
     inkscape:cy="528.125"
     inkscape:window-width="1920"
     inkscape:window-height="986"
     inkscape:window-x="-11"
     inkscape:window-y="-11"
     inkscape:window-maximized="1"
     inkscape:current-layer="svg25459" />
  <path
     style="display:inline;fill:#e3dedb;fill-opacity:0;stroke:#ffffff;stroke-width:1.17742;stroke-linecap:round;stroke-linejoin:round;stroke-miterlimit:4;stroke-dasharray:none;stroke-opacity:0;paint-order:stroke markers fill"
     d="M 69.5381,74.950769 V 0.18440238 h 77.5701 77.57011 V 74.950769 149.71713 H 147.1082 69.5381 Z m 68.13322,62.160671 c 1.25552,-0.7503 1.84226,-2.0269 1.35232,-2.94236 -0.32233,-0.60229 -0.2676,-0.65132 0.72725,-0.65132 0.5917,0 1.29757,-0.0851 1.56859,-0.18909 0.38418,-0.14742 0.49277,0.0242 0.49277,0.77881 0,1.22254 0.87876,2.11688 2.35149,2.39316 1.59184,0.29863 6.71771,-0.009 7.54742,-0.45324 0.54663,-0.29253 1.04947,-0.26273 2.45357,0.14545 2.33776,0.67961 8.3481,0.48819 10.32016,-0.32867 1.92277,-0.79645 2.54883,-2.40117 1.42239,-3.64588 -0.4893,-0.54066 -0.46469,-0.56971 0.48276,-0.56971 0.54908,0 1.40989,-0.21282 1.91293,-0.47295 1.61761,-0.8365 1.6223,-3.20488 0.008,-4.13126 -0.75952,-0.43589 -0.86926,-0.65934 -0.73381,-1.494 0.0876,-0.53979 -0.008,-1.29296 -0.21123,-1.6737 -1.12772,-2.10718 -7.15653,-2.5439 -9.65168,-0.69915 -0.81253,0.60073 -0.82669,0.60069 -1.57291,-0.004 -0.65494,-0.53034 -1.0346,-0.58146 -2.91551,-0.39257 -1.85056,0.18585 -2.13668,0.1498 -1.98331,-0.24988 1.60064,-4.17117 2.36849,-8.83371 2.69114,-16.34101 0.23991,-5.58225 0.3137,-6.10287 1.08971,-7.688977 0.95559,-1.95316 2.32552,-3.266839 4.61837,-4.428712 l 1.6073,-0.814481 2.13471,0.515239 c 1.23589,0.2983 3.43038,0.516777 5.21199,0.518895 4.88431,0.0058 8.20264,-1.334433 13.12522,-5.301092 1.93925,-1.562673 4.61749,-2.825668 5.99196,-2.825668 0.38837,0 1.38509,0.430573 2.2149,0.956831 1.9267,1.221884 2.81583,1.066958 3.2704,-0.569849 0.92391,-3.326828 -0.0917,-6.837948 -2.85979,-9.886533 l -1.41248,-1.555631 1.73319,-1.871161 c 3.09886,-3.345546 5.8043,-7.982842 7.41861,-12.716002 1.66614,-4.885135 2.00624,-9.835818 1.36557,-19.878358 -0.25013,-3.92088 -0.22326,-5.365918 0.13825,-7.436721 0.55644,-3.1874 2.62523,-7.48887 4.84514,-10.074036 0.85788,-0.999076 1.55981,-2.075351 1.55981,-2.391721 0,-0.766911 -1.34061,-1.782976 -2.92228,-2.214819 -1.8057,-0.493011 -6.73627,-0.138334 -9.38303,0.674963 -4.84772,1.489617 -9.78611,4.757867 -13.23986,8.762204 l -2.02493,2.347727 -0.0937,-1.67709 c -0.11485,-2.055472 0.54285,-4.719299 2.00644,-8.126894 1.29097,-3.005689 1.2153,-3.249753 -1.18626,-3.825876 -5.27598,-1.265666 -13.38499,2.743208 -19.30864,9.545684 -0.8801,1.010685 -1.68533,1.87208 -1.7894,1.914211 -0.10402,0.04213 -0.44703,-0.550325 -0.76216,-1.316569 -0.82065,-1.995445 -4.72062,-8.748804 -6.16518,-10.675923 -1.95867,-2.612967 -2.23299,-2.477808 -5.69049,2.803738 -1.59835,2.44159 -3.82131,6.090673 -4.9399,8.109073 l -2.0338,3.669818 -1.40191,-1.956422 c -2.7194,-3.795042 -7.69852,-8.001016 -11.57001,-9.773439 -2.42028,-1.108038 -6.23128,-1.99614 -8.56344,-1.99559 -2.22613,5.28e-4 -4.16221,0.715528 -4.32629,1.597709 -0.0519,0.279318 0.54377,1.420831 1.32381,2.536694 1.8565,2.655731 3.22745,5.625475 3.48749,7.554509 l 0.209,1.550481 -2.64744,-2.6826 c -5.60576,-5.680192 -12.0086,-8.847868 -18.635376,-9.219471 -3.243348,-0.181874 -5.041011,0.151864 -6.345617,1.178073 -1.061295,0.834813 -1.035204,1.639234 0.09966,3.072102 1.430206,1.805783 3.397747,5.656822 4.408659,8.628968 1.289895,3.792412 1.792073,7.12363 2.130361,14.131965 0.424079,8.78577 1.60882,13.861567 4.595583,19.688955 2.30063,4.488694 5.25893,7.97246 8.19547,9.651198 l 1.09035,0.623318 -2.19411,2.230103 c -1.20676,1.226558 -2.51477,2.91849 -2.90671,3.759851 -0.87743,1.883534 -0.98063,4.308122 -0.2432,5.713246 0.6204,1.182123 1.30874,1.279307 2.7664,0.390574 2.05965,-1.255775 5.30486,-0.518705 9.11967,2.071313 2.61065,1.77247 5.32891,3.093868 7.54652,3.668508 2.31973,0.601103 6.35907,0.634416 8.24124,0.06796 l 1.4008,-0.421581 2.82347,1.745568 c 1.5529,0.960064 3.13398,2.025942 3.5135,2.368621 1.17732,1.063026 2.45396,3.637027 2.98518,6.018827 0.64651,2.89868 0.47391,9.20539 -0.33647,12.29432 -0.76419,2.91286 -2.94609,7.19665 -3.74432,7.35139 -0.34268,0.0664 -2.32569,-0.0559 -4.40667,-0.27182 -4.58982,-0.47627 -6.41843,-0.16454 -8.04755,1.37192 -1.93314,1.8232 -1.8277,3.95293 0.2459,4.9672 1.09127,0.53378 1.14611,0.62119 0.69932,1.11488 -0.67559,0.74653 -0.60825,2.07821 0.13125,2.59621 0.59926,0.41973 0.59074,0.45026 -0.31152,1.11734 -1.16284,0.85973 -1.24022,2.13403 -0.18951,3.12113 1.11227,1.04491 2.21564,1.2709 5.80396,1.18873 2.57396,-0.059 3.48396,-0.20217 4.27028,-0.67207 z"
     id="path55195" />
  <rect
     style="fill:#f47216;fill-opacity:1;stroke:none;stroke-width:1.51324;stroke-linecap:round;stroke-linejoin:round;paint-order:stroke fill markers"
     id="rect2380"
     width="155.38232"
     height="149.8156"
     x="69.29599"
     y="0.18440291" />
  <g
     id="g7750"
     style="display:inline"
     transform="matrix(0.83256377,0,0,0.83260958,121.78958,-43.685359)">
    <g
       transform="matrix(1.3805792,0,0,1.3805792,-9.18321,-58.63923)"
       id="g7704">
      <path
         d="m 16.845613,193.18251 c -1.721967,0 -3.138623,-0.14867 -4.250575,-0.4453 -1.111979,-0.29771 -1.667811,-0.70671 -1.667811,-1.22681 0,-0.74271 0.41262,-1.39301 1.237411,-1.95062 0.824792,-0.55733 1.847029,-0.83576 3.066582,-0.83576 0.57398,0 1.470786,0.0927 2.689969,0.27843 1.219631,0.18576 2.116068,0.27881 2.689969,0.27881 h 2.15197 c 1.363608,-1.70922 2.421404,-3.77141 3.17426,-6.18657 0.753595,-2.41554 1.130102,-4.99793 1.130102,-7.74755 0,-2.52637 -0.376507,-4.7744 -1.130102,-6.7439 -0.752856,-1.96914 -1.810652,-3.43733 -3.17426,-4.40282 -3.371523,-2.00663 -5.164765,-3.12148 -5.379912,-3.34436 -0.645651,0.37159 -1.326836,0.65002 -2.044423,0.83577 -0.717217,0.18574 -1.470706,0.2788 -2.259569,0.2788 -1.649952,0 -3.2999831,-0.2788 -4.9496446,-0.83576 -1.6495561,-0.55724 -3.228311,-1.39366 -4.7343655,-2.50785 -1.2199218,-0.89207 -2.43907861,-1.5794 -3.65871025,-2.06257 -1.21918315,-0.48307 -2.33124135,-0.72446 -3.33562065,-0.72446 -0.57398,0 -1.1301014,0.0931 -1.6678103,0.27843 -0.538342,0.18575 -1.058166,0.46455 -1.5601314,0.83642 -0.1435015,-0.29733 -0.2694084,-0.59465 -0.3766125,-0.89198 -0.10789,-0.29741 -0.1617031,-0.55733 -0.1617031,-0.78011 0,-1.41227 0.5743493,-2.86082 1.7219664,-4.34726 1.1475906,-1.48643 2.7259762,-2.82416 4.73436542,-4.01317 -4.01717402,-1.48644 -7.26297432,-4.73765 -9.73779652,-9.75381 -2.475191,-5.01645 -3.712602,-10.86866 -3.712602,-17.55691 0,-3.93827 -0.555726,-7.61699 -1.668101,-11.03542 -1.111636,-3.41807 -2.707801,-6.4276 -4.788205,-9.028601 0.430769,-0.372236 0.968768,-0.650484 1.614024,-0.836601 0.645942,-0.18613 1.363159,-0.278248 2.152708,-0.278248 3.801632,0 7.5137595,1.076695 11.136568,3.23195 3.6224127,2.15525 6.72500156,5.16478 9.3076873,9.02962 0.3584638,-1.4119 0.5376825,-2.52665 0.5376825,-3.34464 0,-1.33726 -0.3766125,-2.82342 -1.1294419,-4.45846 -0.7535944,-1.63505 -1.81141746,-3.307328 -3.17491999,-5.015894 0.28718784,-0.148883 0.61001366,-0.279177 0.96837195,-0.389916 0.3592288,-0.112612 0.75359444,-0.168429 1.18436294,-0.168429 3.6579716,0 7.2269934,1.189295 10.7058252,3.567889 3.479835,2.37766 6.366907,5.64776 8.662115,9.80946 1.865574,-4.1617 4.91427,-9.36371 9.146697,-15.606116 2.295207,2.824346 4.805562,7.282806 7.531564,13.376326 2.151997,-3.19566 4.627162,-5.81434 7.4251,-7.85885 2.797252,-2.04358 5.702474,-3.325004 8.715638,-3.845203 0.57361,0 1.129732,0.05584 1.668074,0.166583 0.537709,0.111663 1.057902,0.241948 1.559867,0.389918 -0.860798,1.561533 -1.524229,3.102592 -1.990557,4.626902 -0.466037,1.52338 -0.699412,2.9537 -0.699412,4.29095 0,1.93284 0.179114,3.60484 0.537973,5.01636 2.223642,-3.9378 5.110609,-7.05993 8.661746,-9.36315 3.551136,-2.304143 7.299561,-3.455284 11.244352,-3.455284 0.789126,0 1.506608,0.09214 2.152444,0.278248 0.645837,0.186104 1.18373,0.464365 1.613655,0.836601 -1.864914,1.930975 -3.317551,4.067615 -4.357964,6.408985 -1.039464,2.34044 -1.559657,4.66356 -1.559657,6.96678 0,1.33773 0.08943,3.28834 0.268934,5.85258 0.178585,2.56388 0.268933,4.51449 0.268933,5.85184 0,4.23596 -0.896146,8.30478 -2.689415,12.20638 -1.794165,3.90113 -4.304731,7.26401 -7.533042,10.08817 1.506714,1.1142 2.690338,2.35914 3.550768,3.73437 0.860798,1.37477 1.291567,2.73073 1.291567,4.06846 0,0.44593 -0.179113,1.18901 -0.537973,2.22969 -1.506819,-1.11485 -2.582396,-1.67208 -3.228047,-1.67208 -1.004379,0 -2.116332,0.2788 -3.335885,0.83567 -1.219262,0.55723 -2.439157,1.39337 -3.65842,2.50859 -1.434805,1.26291 -2.994567,2.22905 -4.680974,2.89796 -1.68559,0.66881 -3.3534,1.00327 -5.002956,1.00327 -1.362843,0 -2.528978,-0.0927 -3.49735,-0.27881 -0.968082,-0.18612 -1.775753,-0.46455 -2.421036,-0.83604 -2.367143,0.44603 -4.303966,1.50523 -5.810311,3.17741 -1.506819,1.67181 -2.259675,3.58501 -2.259675,5.74026 0,4.83033 -0.32272,8.91767 -0.968372,12.26157 -0.645915,3.34436 -1.578385,5.75989 -2.797911,7.24558 l 5.380307,-0.55696 c 0.286423,0 0.537972,0.11167 0.752856,0.33446 0.215516,0.2225 0.322799,0.48279 0.322799,0.78011 0,0.59437 -0.269013,1.11457 -0.806616,1.5606 -0.538368,0.44604 -1.165845,0.66882 -1.883063,0.66882 h -3.766283 c -0.4304,0 -0.896437,-0.26028 -1.398877,-0.78049 -0.501966,-0.5202 -0.932365,-1.18901 -1.291198,-2.00654 1.219262,-1.26281 2.151996,-3.49232 2.797648,-6.68788 0.645546,-3.19528 0.968372,-7.09725 0.968372,-11.70442 0,-0.29732 -0.160912,-0.55724 -0.483817,-0.78049 -0.322826,-0.22278 -0.699807,-0.33436 -1.130207,-0.33436 v 3.9016 c 0,6.53954 -1.00401,11.33283 -3.013164,14.37978 -2.008389,3.04694 -5.128757,4.57007 -9.360709,4.57007"
         style="fill:#000088;fill-opacity:1;fill-rule:evenodd;stroke:#ffffff;stroke-width:1.9557;stroke-linejoin:round;stroke-miterlimit:4;stroke-dasharray:none;stroke-opacity:1;paint-order:stroke fill markers"
         id="path16"
         inkscape:connector-curvature="0" />
      <path
         d="m 54.506181,147.47955 c 3.873963,0 7.442589,-2.34099 10.706538,-7.0227 3.264344,-4.682 4.895646,-9.77224 4.895646,-15.27148 0,-1.33772 -0.08943,-3.28833 -0.268933,-5.85221 -0.179641,-2.5635 -0.268934,-4.51448 -0.268934,-5.85183 0,-2.30396 0.41225,-4.51514 1.237675,-6.63233 0.824501,-2.11803 2.025905,-3.99503 3.604185,-5.63008 -3.65908,0 -7.137437,1.26374 -10.43705,3.7903 -3.299957,2.52656 -5.91836,5.90758 -7.85513,10.14391 1.434805,5.57378 2.151996,10.40411 2.151996,14.49108 0,3.56714 -0.609617,6.85511 -1.829249,9.86501 -1.219183,3.00982 -2.94115,5.48063 -5.165055,7.4131 0.502335,0.1487 1.022528,0.27843 1.560501,0.39001 0.537972,0.11157 1.094173,0.16722 1.66781,0.16722"
         style="fill:#ffffff;fill-opacity:1;fill-rule:evenodd;stroke:#ffffff;stroke-width:0.724334;stroke-miterlimit:4;stroke-dasharray:none;stroke-opacity:1"
         id="path18"
         inkscape:connector-curvature="0" />
      <path
         d="m 40.517889,149.15173 c 4.232347,-0.37149 7.800973,-2.26654 10.706089,-5.68535 2.90559,-3.41806 4.358148,-7.468 4.358148,-12.14999 0,-5.49924 -0.537972,-9.77233 -1.613918,-12.81964 -1.434805,-5.57341 -2.152365,-9.28889 -2.152365,-11.14709 0,-1.26281 0.143501,-2.45211 0.430399,-3.56696 0.287161,-1.11485 0.681553,-2.15432 1.183598,-3.1212 -2.654041,0.22335 -5.218288,1.28235 -7.693743,3.17704 -2.474453,1.89561 -4.572662,4.36633 -6.294233,7.41262 2.08043,3.79039 3.6762,7.71051 4.788152,11.76035 1.111979,4.05031 1.66781,8.11913 1.66781,12.20611 0,1.93274 -0.466406,4.08725 -1.398771,6.46575 -0.932074,2.37775 -2.259939,4.86745 -3.981166,7.46836"
         style="fill:#ffffff;fill-opacity:1;fill-rule:evenodd;stroke:#ffffff;stroke-width:0.724334;stroke-miterlimit:4;stroke-dasharray:none;stroke-opacity:1"
         id="path20"
         inkscape:connector-curvature="0" />
      <path
         d="m 5.0092111,145.25014 c 1.1476171,0 2.223668,-0.18575 3.2280472,-0.55724 -2.2240109,-2.30396 -3.9459772,-5.35053 -5.1647911,-9.14055 -1.2196316,-3.79067 -1.8295398,-7.98922 -1.8295398,-12.59639 0,-2.0808 0.358754,-5.23895 1.0759454,-9.47463 -2.51035456,-3.64169 -5.4155759,-6.50298 -8.7159015,-8.58378 -3.2996133,-2.0808 -6.6712413,-3.1212 -10.1143823,-3.1212 1.72128,2.15525 3.048775,5.09033 3.98085,8.806 0.932734,3.71585 1.39914,8.02598 1.39914,12.93084 0,5.35053 1.6855902,10.31105 5.0572181,14.88184 3.3718917,4.57004 7.06623996,6.85511 11.083414,6.85511"
         style="fill:#ffffff;fill-opacity:1;fill-rule:evenodd;stroke:#ffffff;stroke-width:0.724334;stroke-linecap:round;stroke-linejoin:round;stroke-miterlimit:4;stroke-dasharray:none;stroke-opacity:1;paint-order:stroke markers fill"
         id="path22"
         inkscape:connector-curvature="0" />
      <path
         d="m 18.997583,148.03651 c -1.578729,-1.93172 -2.780133,-4.23568 -3.605003,-6.91076 -0.824791,-2.67545 -1.237411,-5.5734 -1.237411,-8.69488 0,-2.52675 0.41262,-5.33201 1.237411,-8.41562 0.82487,-3.08482 2.026274,-6.40982 3.605003,-9.97696 -2.224011,-3.93901 -4.644941,-7.13438 -7.263344,-9.58649 -2.6187721,-2.45304 -5.2185777,-3.90104 -7.8013426,-4.34773 0.8607985,0.89244 1.5245989,2.06219 1.9908999,3.51113 0.466433,1.44986 0.6994384,3.06629 0.6994384,4.84931 0,1.70959 -0.3587276,3.93863 -1.0760245,6.68862 -0.717508,2.00664 -1.0763411,5.16441 -1.0763411,9.47463 0,5.7224 1.3449845,10.75736 4.0353228,15.10425 2.6897051,4.34763 6.1866861,7.11577 10.4913911,8.3045"
         style="fill:#ffffff;fill-opacity:1;fill-rule:evenodd;stroke:#ffffff;stroke-width:0.724334;stroke-miterlimit:4;stroke-dasharray:none;stroke-opacity:1"
         id="path24"
         inkscape:connector-curvature="0" />
      <path
         d="m 30.295906,150.26621 c 3.442825,0 6.365799,-1.5231 8.768976,-4.57041 2.403151,-3.04695 3.605003,-6.72529 3.605003,-11.03514 0,-5.12803 -1.057902,-10.58985 -3.174234,-16.38679 -2.116359,-5.79582 -5.18294,-11.66682 -9.199745,-17.61237 -4.376007,6.46575 -7.711891,12.55926 -10.007126,18.28128 -2.295577,5.72239 -3.443167,10.7756 -3.443167,15.16027 0,4.45883 1.308581,8.26737 3.926984,11.42552 2.618693,3.15899 5.792927,4.73764 9.523309,4.73764"
         style="fill:#ffffff;fill-opacity:1;fill-rule:evenodd;stroke:#ffffff;stroke-width:0.724334;stroke-miterlimit:4;stroke-dasharray:none;stroke-opacity:1"
         id="path26"
         inkscape:connector-curvature="0" />
      <path
         d="m 48.049823,159.74121 c 1.219922,0 2.475191,-0.27843 3.76602,-0.83576 1.291197,-0.55761 2.546731,-1.39365 3.766283,-2.50822 1.506451,-1.26319 3.012795,-2.19229 4.519588,-2.78666 1.506371,-0.59474 2.868845,-0.78049 4.08874,-0.55761 -0.430399,-1.18911 -1.040307,-2.13636 -1.82917,-2.84231 -0.789127,-0.70594 -1.613997,-1.05892 -2.475165,-1.05892 -4.0172,1.11448 -6.527555,1.67218 -7.531934,1.67218 -2.223932,0 -3.837956,-0.18574 -4.841966,-0.5577 -0.789601,0 -1.542721,0.0931 -2.259648,0.2789 -0.717218,0.18574 -1.399167,0.46455 -2.044713,0.83567 0.359123,0.44603 0.627793,0.94809 0.807011,1.50532 0.179377,0.55724 0.268934,1.17013 0.268934,1.83904 0,0.96614 -0.08942,1.82079 -0.268934,2.56415 -0.179113,0.74271 -0.447888,1.37448 -0.807011,1.89469 0.501965,0.14898 1.147617,0.2788 1.936743,0.39038 0.789233,0.1112 1.757605,0.16685 2.905222,0.16685"
         style="fill:#ffffff;fill-opacity:1;fill-rule:evenodd;stroke:none;stroke-width:0.0930591"
         id="path28"
         inkscape:connector-curvature="0" />
      <path
         d="m 13.079224,159.18398 c 1.147986,0 2.223641,-0.18547 3.227941,-0.55696 -0.358754,-1.04106 -0.537972,-2.52712 -0.537972,-4.45921 0,-0.37149 0.179113,-0.89169 0.537972,-1.56014 0.358833,-0.66928 0.896806,-1.44977 1.614024,-2.34146 -2.223563,-0.44603 -4.555173,-1.37439 -6.993962,-2.78666 -1.004379,0.37112 -1.9910051,0.65002 -2.9593771,0.83642 -0.968372,0.18584 -1.9546025,0.27853 -2.9586388,0.27853 0.2149886,0 -0.6819227,-0.18575 -2.6903383,-0.55799 -1.64992535,0.8179 -2.97676111,1.70997 -3.981536,2.67545 -1.00401,0.96614 -1.6496616,1.93238 -1.9364538,2.89861 1.1479864,-0.44603 2.4925752,-0.42714 4.03503264,0.0553 1.54200896,0.48307 3.06658156,1.39365 4.57329546,2.73138 1.2192623,0.89206 2.5286088,1.57912 3.9270108,2.06219 1.3992461,0.48316 2.7801591,0.72456 4.1430021,0.72456"
         style="fill:#ffffff;fill-opacity:1;fill-rule:evenodd;stroke:none;stroke-width:0.0930591"
         id="path30"
         inkscape:connector-curvature="0" />
      <path
         d="m 30.295906,166.98708 c 0.43003,0 0.896437,-0.25992 1.398402,-0.78012 0.502045,-0.5202 0.932813,-1.18901 1.291198,-2.00654 0.215516,-0.66891 0.699438,-1.35661 1.452927,-2.06256 0.752856,-0.70558 1.703818,-1.31884 2.851435,-1.83941 1.291197,-0.37112 2.331215,-1.02142 3.119972,-1.95061 0.789628,-0.92873 1.183994,-1.95061 1.183994,-3.06509 0,-0.89207 -0.197315,-1.6907 -0.591759,-2.39665 -0.394472,-0.70594 -0.914586,-1.208 -1.560211,-1.50532 -2.94115,1.11485 -5.810707,1.67218 -8.608354,1.67218 -3.51513,0 -6.743151,-0.55733 -9.6843,-1.67218 -0.645652,0.29732 -1.165107,0.85465 -1.560237,1.67218 -0.393996,0.81752 -0.59139,1.74663 -0.59139,2.78703 0,0.81752 0.232926,1.61616 0.69899,2.39702 0.466406,0.77974 1.129811,1.46707 1.990979,2.06144 2.868844,1.70959 4.662377,3.19602 5.379938,4.45921 0.358833,0.66891 0.824896,1.20763 1.398876,1.61616 0.57398,0.40899 1.183519,0.61326 1.82954,0.61326"
         style="fill:#ffffff;fill-opacity:1;fill-rule:evenodd;stroke:none;stroke-width:0.0930591"
         id="path32"
         inkscape:connector-curvature="0" />
      <path
         d="m 18.005033,191.55519 c 0.458344,0 0.859802,-0.13823 1.203589,-0.41504 0.343757,-0.27718 0.515201,-0.61313 0.515201,-1.00954 -0.229228,0.15866 -0.553575,0.27749 -0.973967,0.35647 -0.41969,0.0793 -0.858987,0.11883 -1.317725,0.11883 h -3.437635 c -0.305722,0 -0.458653,0.15835 -0.458653,0.47499 0,0.31633 0.152818,0.47429 0.458653,0.47429 h 4.010537"
         style="fill:#ffffff;fill-opacity:1;fill-rule:evenodd;stroke:none;stroke-width:0.507034;stroke-linecap:butt;stroke-linejoin:round;stroke-miterlimit:4;stroke-dasharray:none;stroke-opacity:1;paint-order:stroke fill markers"
         id="path34"
         inkscape:connector-curvature="0" />
      <path
         d="m 18.459531,196.86126 c -0.57427,0 -1.470707,-0.14904 -2.690338,-0.44567 -1.219184,-0.29735 -2.115989,-0.44638 -2.689969,-0.44638 -0.143238,0 -0.26904,-0.056 -0.376613,-0.16722 -0.107626,-0.11087 -0.161439,-0.24066 -0.161439,-0.38969 0,-0.29735 0.268933,-0.55762 0.807381,-0.78046 0.537603,-0.22284 1.165001,-0.33443 1.882588,-0.33443 0.286423,0 0.735709,0.0927 1.345354,0.27845 0.609618,0.18576 1.058165,0.27882 1.344615,0.27882 0.645256,0 1.542352,-0.18577 2.689969,-0.55727 1.14796,-0.37115 2.045161,-0.55727 2.690417,-0.55727 0.43003,0 0.807012,0.11124 1.129363,0.33444 0.323195,0.22282 0.484186,0.48274 0.484186,0.7801 0,0.44567 -0.268564,0.83644 -0.806537,1.1705 -0.537683,0.3348 -1.166214,0.50128 -1.883036,0.50128 -0.430795,0 -1.058193,0.056 -1.883353,0.16759 -0.824765,0.11158 -1.452637,0.16722 -1.882667,0.16722 z m -2.152366,3.56751 c -1.291488,0 -2.331136,-0.13087 -3.120368,-0.39078 -0.789153,-0.25991 -1.183624,-0.61251 -1.183624,-1.05891 0,-0.29735 0.269039,-0.5569 0.807011,-0.78009 0.538448,-0.2232 1.165845,-0.3348 1.883063,-0.3348 h 3.766284 c 0.573611,0 1.075655,0.0931 1.50645,0.27917 0.430373,0.18576 0.645177,0.38969 0.645177,0.61325 0,0.52019 -0.394761,0.92841 -1.183176,1.22613 -0.789232,0.29699 -1.829619,0.44603 -3.120817,0.44603 z m 11.836006,-1.11525 c -1.00401,0 -1.793242,-0.0923 -2.366879,-0.27845 -0.57427,-0.18576 -0.861168,-0.46494 -0.861168,-0.83608 0,-0.29772 0.161439,-0.55727 0.484661,-0.7801 0.32272,-0.22356 0.699333,-0.33444 1.129363,-0.33444 0.287187,0 0.735076,-0.0931 1.345353,-0.27881 0.609645,-0.18576 1.058193,-0.27918 1.344985,-0.27918 0.287188,0 0.735446,0.0934 1.34509,0.27918 0.609908,0.18576 1.058166,0.27881 1.344984,0.27881 0.286793,0 0.537973,0.0927 0.75312,0.27845 0.215252,0.18576 0.322826,0.39005 0.322826,0.61289 0,0.44639 -0.466037,0.78082 -1.398402,1.00329 -0.93284,0.22282 -2.08043,0.33444 -3.443933,0.33444 z m 2.690339,-3.34431 c -1.075946,0 -1.972382,-0.11161 -2.690339,-0.33408 -0.717218,-0.22282 -1.075681,-0.48347 -1.075681,-0.78046 0,-0.44567 0.214988,-0.83571 0.645651,-1.17051 0.43003,-0.33443 0.932734,-0.50165 1.506345,-0.50165 h 4.842071 c 0.431032,0 0.806985,0.11161 1.129732,0.33444 0.323195,0.22319 0.484186,0.48311 0.484186,0.78046 0,0.52019 -0.44781,0.92914 -1.344615,1.22613 -0.896806,0.29735 -2.062572,0.44567 -3.49735,0.44567 z m 7.532382,3.34431 c -1.291198,0 -2.331584,-0.0923 -3.120816,-0.27845 -0.789154,-0.18576 -1.183519,-0.46494 -1.183519,-0.83608 0,-0.37152 0.323089,-0.70631 0.968741,-1.00367 0.645177,-0.29735 1.398771,-0.44529 2.25957,-0.44529 l 4.842334,-0.22357 c 0.573242,0 1.075656,0.11198 1.505685,0.3348 0.431138,0.2232 0.645916,0.48275 0.645916,0.78046 0,0.51982 -0.537973,0.92841 -1.613918,1.22577 -1.076051,0.29771 -2.51083,0.44603 -4.303993,0.44603 z m 2.689969,-4.45885 c -1.793611,0 -2.689969,-0.18576 -2.689969,-0.55726 0,-0.44604 0.215253,-0.83572 0.644808,-1.17015 0.431164,-0.33443 0.933209,-0.50202 1.507189,-0.50202 h 4.842334 c 0.43003,0 0.806643,0.11161 1.129363,0.33444 0.322826,0.22282 0.484555,0.48347 0.484555,0.78046 0,0.29699 -0.10789,0.55727 -0.32272,0.7801 -0.215253,0.22284 -0.466037,0.33443 -0.753225,0.33443 z m -1.076024,-3.34427 c -0.573637,0 -1.075576,-0.1113 -1.506741,-0.33483 -0.430399,-0.22214 -0.645256,-0.48205 -0.645256,-0.77937 0,-0.52057 0.394472,-0.9291 1.18286,-1.22652 0.789628,-0.29695 1.829935,-0.44566 3.121502,-0.44566 1.00401,0 1.793243,0.1487 2.366853,0.44566 0.57398,0.29742 0.861168,0.70595 0.861168,1.22652 0,0.37149 -0.144029,0.64955 -0.430768,0.8353 -0.286819,0.18613 -0.68129,0.2789 -1.183625,0.2789 h -3.765993"
         style="fill:#000088;fill-opacity:1;fill-rule:evenodd;stroke:#ffffff;stroke-width:1.9557;stroke-miterlimit:4;stroke-dasharray:none;stroke-opacity:1;paint-order:stroke fill markers"
         id="path38"
         inkscape:connector-curvature="0" />
    </g>
  </g>
  <rect
     style="fill:#007216;fill-opacity:0.929412;stroke:none;stroke-width:1.50581;stroke-linecap:round;stroke-linejoin:round;paint-order:stroke fill markers"
     id="rect11100"
     width="69.264397"
     height="149.8156"
     x="0.031593803"
     y="0.18440291" />
  <g
     aria-label="भा.
ज.
पा."
     id="text78491"
     style="font-size:43.1608px;line-height:1.05;text-align:end;text-anchor:end;display:inline;fill:#000088;stroke-width:2.03908">
    <path
       d="M 43.035273,15.194001 H 38.609605 V 43.518276 H 35.153369 V 31.69542 H 24.089198 v 3.013669 q 0,0.316119 -0.06322,0.674388 -0.04215,0.358268 -0.210746,0.674387 -0.147523,0.295045 -0.421493,0.505791 -0.252895,0.189671 -0.653313,0.189671 -0.484716,0 -1.159103,-0.295044 -0.653313,-0.316119 -1.36985,-0.82191 -0.695462,-0.526865 -1.390924,-1.180178 -0.674388,-0.674388 -1.222327,-1.390924 -0.526866,-0.716537 -0.864059,-1.433074 -0.337194,-0.716536 -0.337194,-1.3277 0,-0.885134 0.632238,-1.285551 0.632238,-0.400418 1.664894,-0.400418 h 2.044237 V 17.048566 q 0,-1.095879 -0.526865,-1.664894 -0.526865,-0.590089 -1.3277,-0.590089 -0.885134,0 -1.496297,0.653313 -0.59009,0.653313 -0.59009,1.664894 0,0.189672 0.04215,0.463642 0.04215,0.273969 0.210746,0.632238 0.168597,0.337194 0.50579,0.77976 0.337194,0.421493 0.906209,0.906209 l -1.875641,2.297132 q -0.969432,-0.526865 -1.580595,-1.159103 -0.611164,-0.653313 -0.948358,-1.327701 -0.337194,-0.674387 -0.463641,-1.306626 -0.126448,-0.653313 -0.126448,-1.201252 0,-1.011582 0.337194,-1.981014 0.358268,-0.990506 1.05373,-1.770267 0.695462,-0.800835 1.728118,-1.285551 1.053731,-0.484716 2.444655,-0.484716 1.222327,0 2.170685,0.400417 0.948357,0.400418 1.580596,1.159104 0.653313,0.737611 0.969432,1.791342 0.337193,1.032656 0.337193,2.318207 V 28.618527 H 35.153369 V 12.096033 h 7.881904 z"
       style="font-family:'Bell MT';-inkscape-font-specification:'Bell MT';stroke:#ffffff;stroke-linecap:round;stroke-linejoin:round;paint-order:stroke fill markers"
       id="path22244" />
    <path
       d="M 54.246965,15.194001 H 49.821297 V 43.518276 H 46.36506 V 15.194001 h -4.805011 v -3.097968 h 12.686916 z"
       style="font-family:'Bell MT';-inkscape-font-specification:'Bell MT';stroke:#ffffff;stroke-linecap:round;stroke-linejoin:round;paint-order:stroke fill markers"
       id="path22246" />
    <path
       d="m 58.230066,39.640548 q 0.842985,0 1.454148,0.590089 0.632239,0.590089 0.632239,1.475223 0,0.864059 -0.611164,1.475222 -0.611164,0.611164 -1.475223,0.611164 -0.842984,0 -1.454148,-0.611164 -0.611164,-0.611163 -0.611164,-1.475222 0,-0.842985 0.611164,-1.454148 0.611164,-0.611164 1.454148,-0.611164 z"
       style="font-family:'Bell MT';-inkscape-font-specification:'Bell MT';stroke:#ffffff;stroke-linecap:round;stroke-linejoin:round;paint-order:stroke fill markers"
       id="path22248" />
    <path
       d="M 54.246965,63.617207 H 49.821297 V 91.941482 H 46.365061 V 73.648721 h -6.786024 l -0.02107,0.0843 q 0.252895,0.295045 0.758686,0.906209 0.505791,0.590089 1.011581,1.475222 0.505791,0.864059 0.885134,1.981014 0.379343,1.095879 0.379343,2.381431 0,1.285551 -0.442567,2.550027 -0.421492,1.243402 -1.285551,2.254984 -0.842985,0.990506 -2.14961,1.60167 -1.306626,0.611164 -3.034744,0.611164 -1.707044,0 -3.140117,-0.590089 -1.411999,-0.611164 -2.592177,-1.622745 -1.159104,-1.011582 -2.086386,-2.339282 -0.927283,-1.3277 -1.664895,-2.802923 -0.716536,-1.496297 -1.264476,-3.013669 -0.526865,-1.538447 -0.906208,-2.929371 -0.379343,-1.411999 -0.611164,-2.592177 -0.231821,-1.180178 -0.358268,-1.959939 l 3.119042,-0.611164 q 0.695462,3.79343 1.685969,6.659577 1.011581,2.845073 2.233908,4.762862 1.222328,1.91779 2.634326,2.887222 1.411999,0.948357 2.950446,0.948357 1.09588,0 1.770267,-0.421492 0.674388,-0.442567 1.053731,-1.053731 0.379343,-0.632238 0.50579,-1.285551 0.147522,-0.674387 0.147522,-1.159103 0,-0.864059 -0.358268,-1.833491 -0.337194,-0.990507 -1.011581,-1.959939 -0.653313,-0.990507 -1.64382,-1.896715 -0.990506,-0.906208 -2.276058,-1.64382 V 70.571828 H 46.365061 V 63.617207 H 20.464366 v -3.097968 h 33.782599 z"
       style="font-family:'Bell MT';-inkscape-font-specification:'Bell MT';stroke:#ffffff;stroke-linecap:round;stroke-linejoin:round;paint-order:stroke fill markers"
       id="path22250" />
    <path
       d="m 58.230066,88.063754 q 0.842985,0 1.454148,0.590089 0.632239,0.590089 0.632239,1.475223 0,0.864059 -0.611164,1.475223 -0.611164,0.611163 -1.475223,0.611163 -0.842984,0 -1.454148,-0.611163 -0.611163,-0.611164 -0.611163,-1.475223 0,-0.842984 0.611163,-1.454148 0.611164,-0.611164 1.454148,-0.611164 z"
       style="font-family:'Bell MT';-inkscape-font-specification:'Bell MT';stroke:#ffffff;stroke-linecap:round;stroke-linejoin:round;paint-order:stroke fill markers"
       id="path22252" />
    <path
       d="m 43.035273,112.04041 h -4.425668 v 28.32428 h -3.477311 v -10.07366 l -0.0843,-0.0211 q -1.411999,1.26448 -3.161192,1.81242 -1.749193,0.52686 -3.456236,0.52686 -1.812416,0 -3.308714,-0.52686 -1.496297,-0.52687 -2.571102,-1.60167 -1.074805,-1.09588 -1.685969,-2.7397 -0.590089,-1.6649 -0.590089,-3.94095 v -11.75964 h -4.699638 v -3.09796 h 27.460217 z m -7.902979,0 H 23.688781 v 11.56996 q 0,1.3277 0.210746,2.38143 0.231821,1.05374 0.758686,1.79135 0.54794,0.73761 1.433073,1.13803 0.885134,0.37934 2.212834,0.37934 2.170685,0 3.919878,-1.01158 1.749192,-1.03266 2.908296,-2.69755 z"
       style="font-family:'Bell MT';-inkscape-font-specification:'Bell MT';stroke:#ffffff;stroke-linecap:round;stroke-linejoin:round;paint-order:stroke fill markers"
       id="path22254" />
    <path
       d="m 54.246964,112.04041 h -4.425668 v 28.32428 H 46.36506 v -28.32428 h -4.805011 v -3.09796 h 12.686915 z"
       style="font-family:'Bell MT';-inkscape-font-specification:'Bell MT';stroke:#ffffff;stroke-linecap:round;stroke-linejoin:round;paint-order:stroke fill markers"
       id="path22256" />
    <path
       d="m 58.230066,136.48696 q 0.842984,0 1.454148,0.59009 0.632238,0.59009 0.632238,1.47522 0,0.86406 -0.611164,1.47522 -0.611163,0.61117 -1.475222,0.61117 -0.842985,0 -1.454148,-0.61117 -0.611164,-0.61116 -0.611164,-1.47522 0,-0.84298 0.611164,-1.45415 0.611163,-0.61116 1.454148,-0.61116 z"
       style="font-family:'Bell MT';-inkscape-font-specification:'Bell MT';stroke:#ffffff;stroke-linecap:round;stroke-linejoin:round;paint-order:stroke fill markers"
       id="path22258" />
  </g>
  <text
     xml:space="preserve"
     style="font-style:normal;font-weight:normal;font-size:43.1608px;line-height:1.25;font-family:sans-serif;text-align:end;text-anchor:end;display:inline;fill:#000088;fill-opacity:1;stroke:none;stroke-width:2.03908;stroke-miterlimit:4;stroke-dasharray:none"
     x="53.743656"
     y="141.40958"
     id="text135689"><tspan
       sodipodi:role="line"
       id="tspan135687"
       style="font-style:normal;font-variant:normal;font-weight:normal;font-stretch:normal;font-size:43.1608px;font-family:'Bell MT';-inkscape-font-specification:'Bell MT';text-align:end;text-anchor:end;fill:#000088;fill-opacity:1;stroke:#ffffff;stroke-width:2.03908;stroke-linecap:round;stroke-linejoin:round;stroke-miterlimit:4;stroke-dasharray:none;stroke-opacity:1;paint-order:stroke fill markers"
       x="53.743656"
       y="141.40958" /></text>
  <g
     id="g11627"
     style="display:inline;stroke:none"
     transform="matrix(0.83256377,0,0,0.83260958,121.78958,-43.685359)">
    <g
       transform="matrix(1.3805792,0,0,1.3805792,-9.18321,-58.63923)"
       id="g11625"
       style="stroke:none">
      <path
         d="m 16.845613,193.18251 c -1.721967,0 -3.138623,-0.14867 -4.250575,-0.4453 -1.111979,-0.29771 -1.667811,-0.70671 -1.667811,-1.22681 0,-0.74271 0.41262,-1.39301 1.237411,-1.95062 0.824792,-0.55733 1.847029,-0.83576 3.066582,-0.83576 0.57398,0 1.470786,0.0927 2.689969,0.27843 1.219631,0.18576 2.116068,0.27881 2.689969,0.27881 h 2.15197 c 1.363608,-1.70922 2.421404,-3.77141 3.17426,-6.18657 0.753595,-2.41554 1.130102,-4.99793 1.130102,-7.74755 0,-2.52637 -0.376507,-4.7744 -1.130102,-6.7439 -0.752856,-1.96914 -1.810652,-3.43733 -3.17426,-4.40282 -3.371523,-2.00663 -5.164765,-3.12148 -5.379912,-3.34436 -0.645651,0.37159 -1.326836,0.65002 -2.044423,0.83577 -0.717217,0.18574 -1.470706,0.2788 -2.259569,0.2788 -1.649952,0 -3.2999831,-0.2788 -4.9496446,-0.83576 -1.6495561,-0.55724 -3.228311,-1.39366 -4.7343655,-2.50785 -1.2199218,-0.89207 -2.43907861,-1.5794 -3.65871025,-2.06257 -1.21918315,-0.48307 -2.33124135,-0.72446 -3.33562065,-0.72446 -0.57398,0 -1.1301014,0.0931 -1.6678103,0.27843 -0.538342,0.18575 -1.058166,0.46455 -1.5601314,0.83642 -0.1435015,-0.29733 -0.2694084,-0.59465 -0.3766125,-0.89198 -0.10789,-0.29741 -0.1617031,-0.55733 -0.1617031,-0.78011 0,-1.41227 0.5743493,-2.86082 1.7219664,-4.34726 1.1475906,-1.48643 2.7259762,-2.82416 4.73436542,-4.01317 -4.01717402,-1.48644 -7.26297432,-4.73765 -9.73779652,-9.75381 -2.475191,-5.01645 -3.712602,-10.86866 -3.712602,-17.55691 0,-3.93827 -0.555726,-7.61699 -1.668101,-11.03542 -1.111636,-3.41807 -2.707801,-6.4276 -4.788205,-9.028601 0.430769,-0.372236 0.968768,-0.650484 1.614024,-0.836601 0.645942,-0.18613 1.363159,-0.278248 2.152708,-0.278248 3.801632,0 7.5137595,1.076695 11.136568,3.23195 3.6224127,2.15525 6.72500156,5.16478 9.3076873,9.02962 0.3584638,-1.4119 0.5376825,-2.52665 0.5376825,-3.34464 0,-1.33726 -0.3766125,-2.82342 -1.1294419,-4.45846 -0.7535944,-1.63505 -1.81141746,-3.307328 -3.17491999,-5.015894 0.28718784,-0.148883 0.61001366,-0.279177 0.96837195,-0.389916 0.3592288,-0.112612 0.75359444,-0.168429 1.18436294,-0.168429 3.6579716,0 7.2269934,1.189295 10.7058252,3.567889 3.479835,2.37766 6.366907,5.64776 8.662115,9.80946 1.865574,-4.1617 4.91427,-9.36371 9.146697,-15.606116 2.295207,2.824346 4.805562,7.282806 7.531564,13.376326 2.151997,-3.19566 4.627162,-5.81434 7.4251,-7.85885 2.797252,-2.04358 5.702474,-3.325004 8.715638,-3.845203 0.57361,0 1.129732,0.05584 1.668074,0.166583 0.537709,0.111663 1.057902,0.241948 1.559867,0.389918 -0.860798,1.561533 -1.524229,3.102592 -1.990557,4.626902 -0.466037,1.52338 -0.699412,2.9537 -0.699412,4.29095 0,1.93284 0.179114,3.60484 0.537973,5.01636 2.223642,-3.9378 5.110609,-7.05993 8.661746,-9.36315 3.551136,-2.304143 7.299561,-3.455284 11.244352,-3.455284 0.789126,0 1.506608,0.09214 2.152444,0.278248 0.645837,0.186104 1.18373,0.464365 1.613655,0.836601 -1.864914,1.930975 -3.317551,4.067615 -4.357964,6.408985 -1.039464,2.34044 -1.559657,4.66356 -1.559657,6.96678 0,1.33773 0.08943,3.28834 0.268934,5.85258 0.178585,2.56388 0.268933,4.51449 0.268933,5.85184 0,4.23596 -0.896146,8.30478 -2.689415,12.20638 -1.794165,3.90113 -4.304731,7.26401 -7.533042,10.08817 1.506714,1.1142 2.690338,2.35914 3.550768,3.73437 0.860798,1.37477 1.291567,2.73073 1.291567,4.06846 0,0.44593 -0.179113,1.18901 -0.537973,2.22969 -1.506819,-1.11485 -2.582396,-1.67208 -3.228047,-1.67208 -1.004379,0 -2.116332,0.2788 -3.335885,0.83567 -1.219262,0.55723 -2.439157,1.39337 -3.65842,2.50859 -1.434805,1.26291 -2.994567,2.22905 -4.680974,2.89796 -1.68559,0.66881 -3.3534,1.00327 -5.002956,1.00327 -1.362843,0 -2.528978,-0.0927 -3.49735,-0.27881 -0.968082,-0.18612 -1.775753,-0.46455 -2.421036,-0.83604 -2.367143,0.44603 -4.303966,1.50523 -5.810311,3.17741 -1.506819,1.67181 -2.259675,3.58501 -2.259675,5.74026 0,4.83033 -0.32272,8.91767 -0.968372,12.26157 -0.645915,3.34436 -1.578385,5.75989 -2.797911,7.24558 l 5.380307,-0.55696 c 0.286423,0 0.537972,0.11167 0.752856,0.33446 0.215516,0.2225 0.322799,0.48279 0.322799,0.78011 0,0.59437 -0.269013,1.11457 -0.806616,1.5606 -0.538368,0.44604 -1.165845,0.66882 -1.883063,0.66882 h -3.766283 c -0.4304,0 -0.896437,-0.26028 -1.398877,-0.78049 -0.501966,-0.5202 -0.932365,-1.18901 -1.291198,-2.00654 1.219262,-1.26281 2.151996,-3.49232 2.797648,-6.68788 0.645546,-3.19528 0.968372,-7.09725 0.968372,-11.70442 0,-0.29732 -0.160912,-0.55724 -0.483817,-0.78049 -0.322826,-0.22278 -0.699807,-0.33436 -1.130207,-0.33436 v 3.9016 c 0,6.53954 -1.00401,11.33283 -3.013164,14.37978 -2.008389,3.04694 -5.128757,4.57007 -9.360709,4.57007"
         style="fill:#000088;fill-opacity:1;fill-rule:evenodd;stroke:none;stroke-width:1.9557;stroke-linejoin:round;stroke-miterlimit:4;stroke-dasharray:none;stroke-opacity:1;paint-order:stroke fill markers"
         id="path11603"
         inkscape:connector-curvature="0" />
      <path
         d="m 54.506181,147.47955 c 3.873963,0 7.442589,-2.34099 10.706538,-7.0227 3.264344,-4.682 4.895646,-9.77224 4.895646,-15.27148 0,-1.33772 -0.08943,-3.28833 -0.268933,-5.85221 -0.179641,-2.5635 -0.268934,-4.51448 -0.268934,-5.85183 0,-2.30396 0.41225,-4.51514 1.237675,-6.63233 0.824501,-2.11803 2.025905,-3.99503 3.604185,-5.63008 -3.65908,0 -7.137437,1.26374 -10.43705,3.7903 -3.299957,2.52656 -5.91836,5.90758 -7.85513,10.14391 1.434805,5.57378 2.151996,10.40411 2.151996,14.49108 0,3.56714 -0.609617,6.85511 -1.829249,9.86501 -1.219183,3.00982 -2.94115,5.48063 -5.165055,7.4131 0.502335,0.1487 1.022528,0.27843 1.560501,0.39001 0.537972,0.11157 1.094173,0.16722 1.66781,0.16722"
         style="fill:#ffffff;fill-opacity:1;fill-rule:evenodd;stroke:none;stroke-width:0.724334;stroke-miterlimit:4;stroke-dasharray:none;stroke-opacity:1"
         id="path11605"
         inkscape:connector-curvature="0" />
      <path
         d="m 40.517889,149.15173 c 4.232347,-0.37149 7.800973,-2.26654 10.706089,-5.68535 2.90559,-3.41806 4.358148,-7.468 4.358148,-12.14999 0,-5.49924 -0.537972,-9.77233 -1.613918,-12.81964 -1.434805,-5.57341 -2.152365,-9.28889 -2.152365,-11.14709 0,-1.26281 0.143501,-2.45211 0.430399,-3.56696 0.287161,-1.11485 0.681553,-2.15432 1.183598,-3.1212 -2.654041,0.22335 -5.218288,1.28235 -7.693743,3.17704 -2.474453,1.89561 -4.572662,4.36633 -6.294233,7.41262 2.08043,3.79039 3.6762,7.71051 4.788152,11.76035 1.111979,4.05031 1.66781,8.11913 1.66781,12.20611 0,1.93274 -0.466406,4.08725 -1.398771,6.46575 -0.932074,2.37775 -2.259939,4.86745 -3.981166,7.46836"
         style="fill:#ffffff;fill-opacity:1;fill-rule:evenodd;stroke:none;stroke-width:0.724334;stroke-miterlimit:4;stroke-dasharray:none;stroke-opacity:1"
         id="path11607"
         inkscape:connector-curvature="0" />
      <path
         d="m 5.0092111,145.25014 c 1.1476171,0 2.223668,-0.18575 3.2280472,-0.55724 -2.2240109,-2.30396 -3.9459772,-5.35053 -5.1647911,-9.14055 -1.2196316,-3.79067 -1.8295398,-7.98922 -1.8295398,-12.59639 0,-2.0808 0.358754,-5.23895 1.0759454,-9.47463 -2.51035456,-3.64169 -5.4155759,-6.50298 -8.7159015,-8.58378 -3.2996133,-2.0808 -6.6712413,-3.1212 -10.1143823,-3.1212 1.72128,2.15525 3.048775,5.09033 3.98085,8.806 0.932734,3.71585 1.39914,8.02598 1.39914,12.93084 0,5.35053 1.6855902,10.31105 5.0572181,14.88184 3.3718917,4.57004 7.06623996,6.85511 11.083414,6.85511"
         style="fill:#ffffff;fill-opacity:1;fill-rule:evenodd;stroke:none;stroke-width:0.724334;stroke-linecap:round;stroke-linejoin:round;stroke-miterlimit:4;stroke-dasharray:none;stroke-opacity:1;paint-order:stroke markers fill"
         id="path11609"
         inkscape:connector-curvature="0" />
      <path
         d="m 18.997583,148.03651 c -1.578729,-1.93172 -2.780133,-4.23568 -3.605003,-6.91076 -0.824791,-2.67545 -1.237411,-5.5734 -1.237411,-8.69488 0,-2.52675 0.41262,-5.33201 1.237411,-8.41562 0.82487,-3.08482 2.026274,-6.40982 3.605003,-9.97696 -2.224011,-3.93901 -4.644941,-7.13438 -7.263344,-9.58649 -2.6187721,-2.45304 -5.2185777,-3.90104 -7.8013426,-4.34773 0.8607985,0.89244 1.5245989,2.06219 1.9908999,3.51113 0.466433,1.44986 0.6994384,3.06629 0.6994384,4.84931 0,1.70959 -0.3587276,3.93863 -1.0760245,6.68862 -0.717508,2.00664 -1.0763411,5.16441 -1.0763411,9.47463 0,5.7224 1.3449845,10.75736 4.0353228,15.10425 2.6897051,4.34763 6.1866861,7.11577 10.4913911,8.3045"
         style="fill:#ffffff;fill-opacity:1;fill-rule:evenodd;stroke:none;stroke-width:0.724334;stroke-miterlimit:4;stroke-dasharray:none;stroke-opacity:1"
         id="path11611"
         inkscape:connector-curvature="0" />
      <path
         d="m 30.295906,150.26621 c 3.442825,0 6.365799,-1.5231 8.768976,-4.57041 2.403151,-3.04695 3.605003,-6.72529 3.605003,-11.03514 0,-5.12803 -1.057902,-10.58985 -3.174234,-16.38679 -2.116359,-5.79582 -5.18294,-11.66682 -9.199745,-17.61237 -4.376007,6.46575 -7.711891,12.55926 -10.007126,18.28128 -2.295577,5.72239 -3.443167,10.7756 -3.443167,15.16027 0,4.45883 1.308581,8.26737 3.926984,11.42552 2.618693,3.15899 5.792927,4.73764 9.523309,4.73764"
         style="fill:#ffffff;fill-opacity:1;fill-rule:evenodd;stroke:none;stroke-width:0.724334;stroke-miterlimit:4;stroke-dasharray:none;stroke-opacity:1"
         id="path11613"
         inkscape:connector-curvature="0" />
      <path
         d="m 48.049823,159.74121 c 1.219922,0 2.475191,-0.27843 3.76602,-0.83576 1.291197,-0.55761 2.546731,-1.39365 3.766283,-2.50822 1.506451,-1.26319 3.012795,-2.19229 4.519588,-2.78666 1.506371,-0.59474 2.868845,-0.78049 4.08874,-0.55761 -0.430399,-1.18911 -1.040307,-2.13636 -1.82917,-2.84231 -0.789127,-0.70594 -1.613997,-1.05892 -2.475165,-1.05892 -4.0172,1.11448 -6.527555,1.67218 -7.531934,1.67218 -2.223932,0 -3.837956,-0.18574 -4.841966,-0.5577 -0.789601,0 -1.542721,0.0931 -2.259648,0.2789 -0.717218,0.18574 -1.399167,0.46455 -2.044713,0.83567 0.359123,0.44603 0.627793,0.94809 0.807011,1.50532 0.179377,0.55724 0.268934,1.17013 0.268934,1.83904 0,0.96614 -0.08942,1.82079 -0.268934,2.56415 -0.179113,0.74271 -0.447888,1.37448 -0.807011,1.89469 0.501965,0.14898 1.147617,0.2788 1.936743,0.39038 0.789233,0.1112 1.757605,0.16685 2.905222,0.16685"
         style="fill:#ffffff;fill-opacity:1;fill-rule:evenodd;stroke:none;stroke-width:0.0930591"
         id="path11615"
         inkscape:connector-curvature="0" />
      <path
         d="m 13.079224,159.18398 c 1.147986,0 2.223641,-0.18547 3.227941,-0.55696 -0.358754,-1.04106 -0.537972,-2.52712 -0.537972,-4.45921 0,-0.37149 0.179113,-0.89169 0.537972,-1.56014 0.358833,-0.66928 0.896806,-1.44977 1.614024,-2.34146 -2.223563,-0.44603 -4.555173,-1.37439 -6.993962,-2.78666 -1.004379,0.37112 -1.9910051,0.65002 -2.9593771,0.83642 -0.968372,0.18584 -1.9546025,0.27853 -2.9586388,0.27853 0.2149886,0 -0.6819227,-0.18575 -2.6903383,-0.55799 -1.64992535,0.8179 -2.97676111,1.70997 -3.981536,2.67545 -1.00401,0.96614 -1.6496616,1.93238 -1.9364538,2.89861 1.1479864,-0.44603 2.4925752,-0.42714 4.03503264,0.0553 1.54200896,0.48307 3.06658156,1.39365 4.57329546,2.73138 1.2192623,0.89206 2.5286088,1.57912 3.9270108,2.06219 1.3992461,0.48316 2.7801591,0.72456 4.1430021,0.72456"
         style="fill:#ffffff;fill-opacity:1;fill-rule:evenodd;stroke:none;stroke-width:0.0930591"
         id="path11617"
         inkscape:connector-curvature="0" />
      <path
         d="m 30.295906,166.98708 c 0.43003,0 0.896437,-0.25992 1.398402,-0.78012 0.502045,-0.5202 0.932813,-1.18901 1.291198,-2.00654 0.215516,-0.66891 0.699438,-1.35661 1.452927,-2.06256 0.752856,-0.70558 1.703818,-1.31884 2.851435,-1.83941 1.291197,-0.37112 2.331215,-1.02142 3.119972,-1.95061 0.789628,-0.92873 1.183994,-1.95061 1.183994,-3.06509 0,-0.89207 -0.197315,-1.6907 -0.591759,-2.39665 -0.394472,-0.70594 -0.914586,-1.208 -1.560211,-1.50532 -2.94115,1.11485 -5.810707,1.67218 -8.608354,1.67218 -3.51513,0 -6.743151,-0.55733 -9.6843,-1.67218 -0.645652,0.29732 -1.165107,0.85465 -1.560237,1.67218 -0.393996,0.81752 -0.59139,1.74663 -0.59139,2.78703 0,0.81752 0.232926,1.61616 0.69899,2.39702 0.466406,0.77974 1.129811,1.46707 1.990979,2.06144 2.868844,1.70959 4.662377,3.19602 5.379938,4.45921 0.358833,0.66891 0.824896,1.20763 1.398876,1.61616 0.57398,0.40899 1.183519,0.61326 1.82954,0.61326"
         style="fill:#ffffff;fill-opacity:1;fill-rule:evenodd;stroke:none;stroke-width:0.0930591"
         id="path11619"
         inkscape:connector-curvature="0" />
      <path
         d="m 18.005033,191.55519 c 0.458344,0 0.859802,-0.13823 1.203589,-0.41504 0.343757,-0.27718 0.515201,-0.61313 0.515201,-1.00954 -0.229228,0.15866 -0.553575,0.27749 -0.973967,0.35647 -0.41969,0.0793 -0.858987,0.11883 -1.317725,0.11883 h -3.437635 c -0.305722,0 -0.458653,0.15835 -0.458653,0.47499 0,0.31633 0.152818,0.47429 0.458653,0.47429 h 4.010537"
         style="fill:#ffffff;fill-opacity:1;fill-rule:evenodd;stroke:none;stroke-width:0.507034;stroke-linecap:butt;stroke-linejoin:round;stroke-miterlimit:4;stroke-dasharray:none;stroke-opacity:1;paint-order:stroke fill markers"
         id="path11621"
         inkscape:connector-curvature="0" />
      <path
         d="m 18.459531,196.86126 c -0.57427,0 -1.470707,-0.14904 -2.690338,-0.44567 -1.219184,-0.29735 -2.115989,-0.44638 -2.689969,-0.44638 -0.143238,0 -0.26904,-0.056 -0.376613,-0.16722 -0.107626,-0.11087 -0.161439,-0.24066 -0.161439,-0.38969 0,-0.29735 0.268933,-0.55762 0.807381,-0.78046 0.537603,-0.22284 1.165001,-0.33443 1.882588,-0.33443 0.286423,0 0.735709,0.0927 1.345354,0.27845 0.609618,0.18576 1.058165,0.27882 1.344615,0.27882 0.645256,0 1.542352,-0.18577 2.689969,-0.55727 1.14796,-0.37115 2.045161,-0.55727 2.690417,-0.55727 0.43003,0 0.807012,0.11124 1.129363,0.33444 0.323195,0.22282 0.484186,0.48274 0.484186,0.7801 0,0.44567 -0.268564,0.83644 -0.806537,1.1705 -0.537683,0.3348 -1.166214,0.50128 -1.883036,0.50128 -0.430795,0 -1.058193,0.056 -1.883353,0.16759 -0.824765,0.11158 -1.452637,0.16722 -1.882667,0.16722 z m -2.152366,3.56751 c -1.291488,0 -2.331136,-0.13087 -3.120368,-0.39078 -0.789153,-0.25991 -1.183624,-0.61251 -1.183624,-1.05891 0,-0.29735 0.269039,-0.5569 0.807011,-0.78009 0.538448,-0.2232 1.165845,-0.3348 1.883063,-0.3348 h 3.766284 c 0.573611,0 1.075655,0.0931 1.50645,0.27917 0.430373,0.18576 0.645177,0.38969 0.645177,0.61325 0,0.52019 -0.394761,0.92841 -1.183176,1.22613 -0.789232,0.29699 -1.829619,0.44603 -3.120817,0.44603 z m 11.836006,-1.11525 c -1.00401,0 -1.793242,-0.0923 -2.366879,-0.27845 -0.57427,-0.18576 -0.861168,-0.46494 -0.861168,-0.83608 0,-0.29772 0.161439,-0.55727 0.484661,-0.7801 0.32272,-0.22356 0.699333,-0.33444 1.129363,-0.33444 0.287187,0 0.735076,-0.0931 1.345353,-0.27881 0.609645,-0.18576 1.058193,-0.27918 1.344985,-0.27918 0.287188,0 0.735446,0.0934 1.34509,0.27918 0.609908,0.18576 1.058166,0.27881 1.344984,0.27881 0.286793,0 0.537973,0.0927 0.75312,0.27845 0.215252,0.18576 0.322826,0.39005 0.322826,0.61289 0,0.44639 -0.466037,0.78082 -1.398402,1.00329 -0.93284,0.22282 -2.08043,0.33444 -3.443933,0.33444 z m 2.690339,-3.34431 c -1.075946,0 -1.972382,-0.11161 -2.690339,-0.33408 -0.717218,-0.22282 -1.075681,-0.48347 -1.075681,-0.78046 0,-0.44567 0.214988,-0.83571 0.645651,-1.17051 0.43003,-0.33443 0.932734,-0.50165 1.506345,-0.50165 h 4.842071 c 0.431032,0 0.806985,0.11161 1.129732,0.33444 0.323195,0.22319 0.484186,0.48311 0.484186,0.78046 0,0.52019 -0.44781,0.92914 -1.344615,1.22613 -0.896806,0.29735 -2.062572,0.44567 -3.49735,0.44567 z m 7.532382,3.34431 c -1.291198,0 -2.331584,-0.0923 -3.120816,-0.27845 -0.789154,-0.18576 -1.183519,-0.46494 -1.183519,-0.83608 0,-0.37152 0.323089,-0.70631 0.968741,-1.00367 0.645177,-0.29735 1.398771,-0.44529 2.25957,-0.44529 l 4.842334,-0.22357 c 0.573242,0 1.075656,0.11198 1.505685,0.3348 0.431138,0.2232 0.645916,0.48275 0.645916,0.78046 0,0.51982 -0.537973,0.92841 -1.613918,1.22577 -1.076051,0.29771 -2.51083,0.44603 -4.303993,0.44603 z m 2.689969,-4.45885 c -1.793611,0 -2.689969,-0.18576 -2.689969,-0.55726 0,-0.44604 0.215253,-0.83572 0.644808,-1.17015 0.431164,-0.33443 0.933209,-0.50202 1.507189,-0.50202 h 4.842334 c 0.43003,0 0.806643,0.11161 1.129363,0.33444 0.322826,0.22282 0.484555,0.48347 0.484555,0.78046 0,0.29699 -0.10789,0.55727 -0.32272,0.7801 -0.215253,0.22284 -0.466037,0.33443 -0.753225,0.33443 z m -1.076024,-3.34427 c -0.573637,0 -1.075576,-0.1113 -1.506741,-0.33483 -0.430399,-0.22214 -0.645256,-0.48205 -0.645256,-0.77937 0,-0.52057 0.394472,-0.9291 1.18286,-1.22652 0.789628,-0.29695 1.829935,-0.44566 3.121502,-0.44566 1.00401,0 1.793243,0.1487 2.366853,0.44566 0.57398,0.29742 0.861168,0.70595 0.861168,1.22652 0,0.37149 -0.144029,0.64955 -0.430768,0.8353 -0.286819,0.18613 -0.68129,0.2789 -1.183625,0.2789 h -3.765993"
         style="fill:#000088;fill-opacity:1;fill-rule:evenodd;stroke:none;stroke-width:1.9557;stroke-miterlimit:4;stroke-dasharray:none;stroke-opacity:1;paint-order:stroke fill markers"
         id="path11623"
         inkscape:connector-curvature="0" />
    </g>
  </g>
  <g
     aria-label="भा.
ज.
पा."
     id="text21796"
     style="font-size:43.1608px;line-height:1.05;text-align:end;text-anchor:end;display:inline;fill:#000088;stroke-width:2.03908">
    <path
       d="M 43.035273,15.194001 H 38.609605 V 43.518276 H 35.153369 V 31.69542 H 24.089198 v 3.013669 q 0,0.316119 -0.06322,0.674388 -0.04215,0.358268 -0.210746,0.674387 -0.147523,0.295045 -0.421493,0.505791 -0.252895,0.189671 -0.653313,0.189671 -0.484716,0 -1.159103,-0.295044 -0.653313,-0.316119 -1.36985,-0.82191 -0.695462,-0.526865 -1.390924,-1.180178 -0.674388,-0.674388 -1.222327,-1.390924 -0.526866,-0.716537 -0.864059,-1.433074 -0.337194,-0.716536 -0.337194,-1.3277 0,-0.885134 0.632238,-1.285551 0.632238,-0.400418 1.664894,-0.400418 h 2.044237 V 17.048566 q 0,-1.095879 -0.526865,-1.664894 -0.526865,-0.590089 -1.3277,-0.590089 -0.885134,0 -1.496297,0.653313 -0.59009,0.653313 -0.59009,1.664894 0,0.189672 0.04215,0.463642 0.04215,0.273969 0.210746,0.632238 0.168597,0.337194 0.50579,0.77976 0.337194,0.421493 0.906209,0.906209 l -1.875641,2.297132 q -0.969432,-0.526865 -1.580595,-1.159103 -0.611164,-0.653313 -0.948358,-1.327701 -0.337194,-0.674387 -0.463641,-1.306626 -0.126448,-0.653313 -0.126448,-1.201252 0,-1.011582 0.337194,-1.981014 0.358268,-0.990506 1.05373,-1.770267 0.695462,-0.800835 1.728118,-1.285551 1.053731,-0.484716 2.444655,-0.484716 1.222327,0 2.170685,0.400417 0.948357,0.400418 1.580596,1.159104 0.653313,0.737611 0.969432,1.791342 0.337193,1.032656 0.337193,2.318207 V 28.618527 H 35.153369 V 12.096033 h 7.881904 z"
       style="font-family:'Bell MT';-inkscape-font-specification:'Bell MT';stroke-linecap:round;stroke-linejoin:round;paint-order:stroke fill markers"
       id="path22261" />
    <path
       d="M 54.246965,15.194001 H 49.821297 V 43.518276 H 46.36506 V 15.194001 h -4.805011 v -3.097968 h 12.686916 z"
       style="font-family:'Bell MT';-inkscape-font-specification:'Bell MT';stroke-linecap:round;stroke-linejoin:round;paint-order:stroke fill markers"
       id="path22263" />
    <path
       d="m 58.230066,39.640548 q 0.842985,0 1.454148,0.590089 0.632239,0.590089 0.632239,1.475223 0,0.864059 -0.611164,1.475222 -0.611164,0.611164 -1.475223,0.611164 -0.842984,0 -1.454148,-0.611164 -0.611164,-0.611163 -0.611164,-1.475222 0,-0.842985 0.611164,-1.454148 0.611164,-0.611164 1.454148,-0.611164 z"
       style="font-family:'Bell MT';-inkscape-font-specification:'Bell MT';stroke-linecap:round;stroke-linejoin:round;paint-order:stroke fill markers"
       id="path22265" />
    <path
       d="M 54.246965,63.617207 H 49.821297 V 91.941482 H 46.365061 V 73.648721 h -6.786024 l -0.02107,0.0843 q 0.252895,0.295045 0.758686,0.906209 0.505791,0.590089 1.011581,1.475222 0.505791,0.864059 0.885134,1.981014 0.379343,1.095879 0.379343,2.381431 0,1.285551 -0.442567,2.550027 -0.421492,1.243402 -1.285551,2.254984 -0.842985,0.990506 -2.14961,1.60167 -1.306626,0.611164 -3.034744,0.611164 -1.707044,0 -3.140117,-0.590089 -1.411999,-0.611164 -2.592177,-1.622745 -1.159104,-1.011582 -2.086386,-2.339282 -0.927283,-1.3277 -1.664895,-2.802923 -0.716536,-1.496297 -1.264476,-3.013669 -0.526865,-1.538447 -0.906208,-2.929371 -0.379343,-1.411999 -0.611164,-2.592177 -0.231821,-1.180178 -0.358268,-1.959939 l 3.119042,-0.611164 q 0.695462,3.79343 1.685969,6.659577 1.011581,2.845073 2.233908,4.762862 1.222328,1.91779 2.634326,2.887222 1.411999,0.948357 2.950446,0.948357 1.09588,0 1.770267,-0.421492 0.674388,-0.442567 1.053731,-1.053731 0.379343,-0.632238 0.50579,-1.285551 0.147522,-0.674387 0.147522,-1.159103 0,-0.864059 -0.358268,-1.833491 -0.337194,-0.990507 -1.011581,-1.959939 -0.653313,-0.990507 -1.64382,-1.896715 -0.990506,-0.906208 -2.276058,-1.64382 V 70.571828 H 46.365061 V 63.617207 H 20.464366 v -3.097968 h 33.782599 z"
       style="font-family:'Bell MT';-inkscape-font-specification:'Bell MT';stroke-linecap:round;stroke-linejoin:round;paint-order:stroke fill markers"
       id="path22267" />
    <path
       d="m 58.230066,88.063754 q 0.842985,0 1.454148,0.590089 0.632239,0.590089 0.632239,1.475223 0,0.864059 -0.611164,1.475223 -0.611164,0.611163 -1.475223,0.611163 -0.842984,0 -1.454148,-0.611163 -0.611163,-0.611164 -0.611163,-1.475223 0,-0.842984 0.611163,-1.454148 0.611164,-0.611164 1.454148,-0.611164 z"
       style="font-family:'Bell MT';-inkscape-font-specification:'Bell MT';stroke-linecap:round;stroke-linejoin:round;paint-order:stroke fill markers"
       id="path22269" />
    <path
       d="m 43.035273,112.04041 h -4.425668 v 28.32428 h -3.477311 v -10.07366 l -0.0843,-0.0211 q -1.411999,1.26448 -3.161192,1.81242 -1.749193,0.52686 -3.456236,0.52686 -1.812416,0 -3.308714,-0.52686 -1.496297,-0.52687 -2.571102,-1.60167 -1.074805,-1.09588 -1.685969,-2.7397 -0.590089,-1.6649 -0.590089,-3.94095 v -11.75964 h -4.699638 v -3.09796 h 27.460217 z m -7.902979,0 H 23.688781 v 11.56996 q 0,1.3277 0.210746,2.38143 0.231821,1.05374 0.758686,1.79135 0.54794,0.73761 1.433073,1.13803 0.885134,0.37934 2.212834,0.37934 2.170685,0 3.919878,-1.01158 1.749192,-1.03266 2.908296,-2.69755 z"
       style="font-family:'Bell MT';-inkscape-font-specification:'Bell MT';stroke-linecap:round;stroke-linejoin:round;paint-order:stroke fill markers"
       id="path22271" />
    <path
       d="m 54.246964,112.04041 h -4.425668 v 28.32428 H 46.36506 v -28.32428 h -4.805011 v -3.09796 h 12.686915 z"
       style="font-family:'Bell MT';-inkscape-font-specification:'Bell MT';stroke-linecap:round;stroke-linejoin:round;paint-order:stroke fill markers"
       id="path22273" />
    <path
       d="m 58.230066,136.48696 q 0.842984,0 1.454148,0.59009 0.632238,0.59009 0.632238,1.47522 0,0.86406 -0.611164,1.47522 -0.611163,0.61117 -1.475222,0.61117 -0.842985,0 -1.454148,-0.61117 -0.611164,-0.61116 -0.611164,-1.47522 0,-0.84298 0.611164,-1.45415 0.611163,-0.61116 1.454148,-0.61116 z"
       style="font-family:'Bell MT';-inkscape-font-specification:'Bell MT';stroke-linecap:round;stroke-linejoin:round;paint-order:stroke fill markers"
       id="path22275" />
  </g>
</svg>
